<?xml version="1.0" encoding="UTF-8" standalone="no"?>
<!DOCTYPE svg PUBLIC "-//W3C//DTD SVG 1.1//EN" "http://www.w3.org/Graphics/SVG/1.1/DTD/svg11.dtd">
<svg width="100%" height="100%" viewBox="0 0 178 176" version="1.1" xmlns="http://www.w3.org/2000/svg" xmlns:xlink="http://www.w3.org/1999/xlink" xml:space="preserve" xmlns:serif="http://www.serif.com/" style="fill-rule:evenodd;clip-rule:evenodd;stroke-linejoin:round;stroke-miterlimit:2;">
    <g transform="matrix(1,0,0,1,0,-24.5)">
        <path d="M88.5,29C135.137,29 173,66.863 173,113.5C173,160.137 135.137,198 88.5,198C41.863,198 4,160.137 4,113.5C4,66.863 41.863,29 88.5,29ZM86,110L41,89L41,147L86,170L86,110ZM93,111L139,88L139,146L93,169L93,111ZM90.5,58L137,81.5L90.5,105L42,81.5L90.5,58Z"/>
    </g>
</svg>
